<?xml version="1.0" encoding="UTF-8" standalone="no"?>
<svg
   xmlns:dc="http://purl.org/dc/elements/1.1/"
   xmlns:cc="http://creativecommons.org/ns#"
   xmlns:rdf="http://www.w3.org/1999/02/22-rdf-syntax-ns#"
   xmlns:svg="http://www.w3.org/2000/svg"
   xmlns="http://www.w3.org/2000/svg"
   width="254.35808mm"
   height="132.29167mm"
   viewBox="0 0 254.35808 132.29167"
   version="1.1"
   id="svg231">
  <defs
     id="defs225" />
  <metadata
     id="metadata228">
    <rdf:RDF>
      <cc:Work
         rdf:about="">
        <dc:format>image/svg+xml</dc:format>
        <dc:type
           rdf:resource="http://purl.org/dc/dcmitype/StillImage" />
        <dc:title></dc:title>
      </cc:Work>
    </rdf:RDF>
  </metadata>
  <g
     id="layer1"
     transform="translate(-235.67811,50.270833)">
    <g
       id="g176"
       transform="translate(235.67809,-50.270823)">
      <g
         id="g1096"
         transform="matrix(3.4819094,0,0,-3.4819094,1.7612148e-5,33.628271)">
        <path
           d="m 0,0 4.774,0.824 0.017,0.003 c 0.372,0.057 0.733,0.085 1.071,0.085 1.027,0 1.91,-0.261 2.625,-0.775 0.535,-0.387 2.87,-2.031 6.946,-4.892 2.84,4.027 4.473,6.351 4.86,6.916 0.69,1.011 1.795,1.654 3.285,1.911 l 4.774,0.824 0.404,-2.336 c 2.649,2.419 6.201,3.832 9.914,3.832 1.804,0 3.559,-0.33 5.216,-0.981 1.908,-0.749 3.214,-2.009 3.68,-3.547 0.244,-0.806 0.346,-2.005 -0.366,-3.398 0.335,0.048 0.66,0.072 0.969,0.072 0.152,0 0.302,-0.006 0.449,-0.017 0.905,3.127 1.588,5.633 2.02,7.221 0.327,1.197 0.443,1.622 0.515,1.832 0.337,0.983 1.361,1.4 2.794,1.723 0.775,0.174 1.922,0.361 2.818,0.361 0.646,0 1.457,-0.086 2,-0.758 0.146,-0.181 0.413,-0.562 1.164,-1.635 1.213,-1.735 3.47,-4.965 6.316,-8.829 6.568,-8.922 6.678,-9.56 6.775,-10.123 0.092,-0.529 0.07,-1.261 -1.347,-3.258 -1.529,-2.155 -2.201,-2.271 -2.602,-2.341 l -18.789,-3.245 c -0.105,-0.018 -0.212,-0.027 -0.32,-0.027 h -0.001 c -0.762,0 -1.817,0.595 -2.666,1.176 -2.48,-1.879 -5.628,-2.936 -8.837,-2.936 h -0.029 c -1.639,0.004 -3.233,0.273 -4.735,0.801 -0.287,0.101 -0.559,0.2 -0.815,0.297 l 0.388,-2.249 -4.805,-0.83 c -0.392,-0.065 -0.764,-0.098 -1.114,-0.098 -2.376,0 -4.016,1.477 -4.501,4.052 l -1.22,7.064 c -0.437,-0.639 -0.736,-1.074 -0.918,-1.336 -0.687,-0.996 -1.789,-1.631 -3.276,-1.887 -0.37,-0.064 -0.732,-0.097 -1.076,-0.097 -1,0 -1.883,0.268 -2.625,0.797 -0.274,0.195 -0.724,0.514 -1.334,0.945 l 1.219,-7.055 c 0.496,-2.966 -0.975,-5.054 -3.934,-5.595 l -4.789,-0.827"
           style="fill:#ffffff;fill-opacity:1;fill-rule:nonzero;stroke:none"
           id="path1098" />
      </g>
      <g
         id="g1100"
         transform="matrix(3.4819094,0,0,-3.4819094,225.98978,42.510661)">
        <path
           d="m 0,0 c -4.224,5.736 -7.071,9.956 -7.434,10.405 -0.362,0.448 -4.558,-0.276 -4.744,-0.819 -0.17,-0.497 -1.235,-4.651 -2.972,-10.56 -0.603,0.371 -1.395,0.485 -2.38,0.335 -2.134,-0.323 -4.266,-0.684 -6.38,-1.123 -0.615,-0.128 -1.255,-0.274 -1.738,-0.677 -0.808,-0.674 -0.944,-1.873 -0.78,-2.912 0.128,-0.811 0.432,-1.644 1.081,-2.146 0.677,-0.525 2.096,7.314 3.126,7.215 1.164,-0.111 2.07,0.602 2.707,1.515 1.609,2.308 0.213,4.267 -2.113,5.181 C -27.278,8.633 -33.97,6.463 -37.178,1.3 l -0.192,1.106 -0.539,3.119 -3.134,-0.542 c -1.034,-0.178 -1.766,-0.582 -2.196,-1.21 -0.429,-0.628 -2.372,-3.393 -5.829,-8.293 -4.959,3.479 -7.733,5.432 -8.323,5.857 -0.59,0.425 -1.414,0.557 -2.473,0.396 l -3.118,-0.539 0.538,-3.118 3.789,-21.939 3.134,0.541 c 2.075,0.38 2.94,1.606 2.594,3.676 L -54.83,-8.63 c 2.45,-1.729 3.991,-2.818 4.623,-3.268 0.632,-0.451 1.449,-0.589 2.452,-0.416 1.034,0.178 1.765,0.576 2.191,1.193 0.425,0.617 1.502,2.188 3.228,4.714 l 1.913,-11.08 c 0.395,-2.094 1.627,-2.968 3.697,-2.621 l 3.166,0.546 c 0,0 -0.611,3.535 -0.611,3.535 l -0.112,0.642 c 0.136,-0.779 2.916,-1.763 3.623,-2.011 1.343,-0.472 2.765,-0.704 4.187,-0.707 3.23,-0.006 6.436,1.176 8.8,3.392 0.971,-0.784 2.416,-1.69 2.767,-1.629 l 18.789,3.245 c 0.523,0.09 2.689,3.121 2.593,3.675 C 6.382,-8.876 4.223,-5.737 0,0"
           style="fill:#ffffff;fill-opacity:1;fill-rule:nonzero;stroke:none"
           id="path1102" />
      </g>
      <g
         id="g1104"
         transform="matrix(3.4819094,0,0,-3.4819094,107.01991,98.311676)"
         style="fill:#66cbdf;fill-opacity:1">
        <path
           d="m 0,0 -3.199,18.433 -0.539,3.119 -3.134,-0.541 c -1.034,-0.179 -1.766,-0.582 -2.195,-1.21 -0.43,-0.629 -2.373,-3.393 -5.83,-8.294 -4.959,3.48 -7.732,5.432 -8.322,5.858 -0.59,0.425 -1.415,0.556 -2.474,0.395 l -3.118,-0.538 0.538,-3.119 3.789,-21.939 3.134,0.542 c 2.076,0.379 2.94,1.605 2.594,3.675 l -1.903,11.017 c 2.45,-1.729 3.991,-2.819 4.623,-3.269 0.632,-0.45 1.449,-0.589 2.452,-0.416 1.034,0.179 1.765,0.577 2.191,1.193 0.426,0.617 1.502,2.189 3.228,4.714 l 1.913,-11.079 c 0.395,-2.095 1.627,-2.969 3.697,-2.622 L 0.611,-3.534 0,0"
           style="fill:#66cbdf;fill-opacity:1;fill-rule:nonzero;stroke:none"
           id="path1106" />
      </g>
      <g
         id="g1108"
         transform="matrix(3.4819094,0,0,-3.4819094,177.64702,52.69875)"
         style="fill:#efe834;fill-opacity:1">
        <path
           d="m 0,0 c -0.441,1.82 -1.682,2.628 -3.646,2.289 l -9.434,-1.63 0.544,-3.15 c 0.365,-2.056 1.603,-2.897 3.711,-2.522 l 2.352,0.406 c -0.416,-1.107 -1.043,-2.06 -1.969,-2.817 -0.863,-0.705 -1.85,-1.118 -2.936,-1.306 -1.087,-0.188 -2.176,-0.091 -3.27,0.291 -1.093,0.381 -2.002,1.02 -2.727,1.917 -0.726,0.897 -1.182,1.888 -1.37,2.975 -0.189,1.097 -0.09,2.199 0.301,3.304 0.289,0.815 1.052,1.985 1.957,2.695 0.904,0.711 1.884,1.15 2.949,1.333 0,0 2.057,0.255 3.325,-0.326 0.024,-0.012 0.051,-0.02 0.077,-0.029 l -0.012,-0.017 c 1.794,-1.251 3.302,-1.002 4.522,0.748 1.23,1.782 0.963,3.302 -0.801,4.558 l -0.01,-0.014 c -0.02,0.012 -0.034,0.029 -0.055,0.04 -2.411,1.287 -5.253,1.811 -8.155,1.31 -0.012,-0.002 -0.023,-0.005 -0.035,-0.007 -0.235,-0.041 -0.468,-0.09 -0.699,-0.144 -0.064,-0.015 -0.128,-0.032 -0.192,-0.048 -0.193,-0.049 -0.386,-0.1 -0.576,-0.158 -0.042,-0.012 -0.083,-0.025 -0.124,-0.038 -1.448,-0.455 -2.818,-1.18 -4.111,-2.168 -1.896,-1.504 -3.329,-3.525 -4.124,-5.811 -0.515,-1.555 -0.748,-3.105 -0.691,-4.65 0.002,-0.041 0.003,-0.082 0.006,-0.123 0.009,-0.213 0.026,-0.426 0.047,-0.639 0.005,-0.056 0.01,-0.112 0.016,-0.168 0.028,-0.254 0.062,-0.507 0.106,-0.761 0.002,-0.011 0.005,-0.021 0.007,-0.032 0.041,-0.234 0.089,-0.466 0.143,-0.696 0.02,-0.085 0.042,-0.17 0.064,-0.254 0.04,-0.16 0.083,-0.319 0.13,-0.476 0.026,-0.087 0.052,-0.173 0.079,-0.258 0.058,-0.18 0.119,-0.358 0.185,-0.535 0.019,-0.051 0.036,-0.103 0.056,-0.154 0.188,-0.488 0.407,-0.965 0.657,-1.432 0.008,-0.016 0.017,-0.033 0.026,-0.049 0.123,-0.226 0.252,-0.45 0.389,-0.671 0.007,-0.01 0.013,-0.021 0.019,-0.031 0.136,-0.217 0.279,-0.431 0.429,-0.643 1.544,-2.159 3.733,-3.783 6.235,-4.643 1.283,-0.421 2.562,-0.652 3.838,-0.682 0.011,0 0.023,0 0.035,0 0.229,-0.005 0.457,-0.002 0.686,0.006 0.073,0.003 0.146,0.006 0.219,0.01 0.178,0.009 0.355,0.023 0.531,0.039 0.08,0.008 0.16,0.014 0.24,0.023 0.235,0.027 0.471,0.059 0.706,0.099 0.011,0.002 0.021,0.003 0.032,0.005 0.251,0.043 0.499,0.095 0.745,0.153 0.066,0.015 0.13,0.033 0.196,0.049 0.185,0.047 0.369,0.097 0.551,0.151 0.067,0.02 0.133,0.04 0.199,0.061 0.208,0.066 0.414,0.136 0.618,0.213 0.028,0.01 0.057,0.02 0.085,0.031 0.492,0.188 0.973,0.409 1.444,0.66 0.023,0.012 0.047,0.025 0.07,0.038 0.205,0.111 0.408,0.228 0.608,0.351 0.038,0.024 0.076,0.046 0.113,0.069 0.153,0.096 0.303,0.199 0.454,0.301 3.945,2.735 6.17,7.593 5.299,12.634 C 0.045,-0.214 0.021,-0.108 0,0"
           style="fill:#efe834;fill-opacity:1;fill-rule:nonzero;stroke:none"
           id="path1110" />
      </g>
      <g
         id="g1112"
         transform="matrix(3.4819094,0,0,-3.4819094,217.88396,69.192473)"
         style="fill:#ea234f;fill-opacity:1">
        <path
           d="M 0,0 -5.896,8.537 -8.604,-1.486 Z m -12.574,-8.676 c -0.533,-0.091 -3.58,2.04 -3.676,2.594 -0.094,0.543 0.879,4.224 2.919,11.042 2.039,6.818 3.299,11.747 3.485,12.291 0.186,0.543 4.381,1.267 4.744,0.819 C -4.74,17.621 -1.892,13.401 2.332,7.665 6.555,1.928 8.714,-1.212 8.808,-1.755 8.903,-2.309 6.737,-5.34 6.215,-5.43"
           style="fill:#ea234f;fill-opacity:1;fill-rule:nonzero;stroke:none"
           id="path1114" />
      </g>
      <g
         id="g1116"
         transform="matrix(3.4819094,0,0,-3.4819094,179.12327,94.370198)">
        <path
           d="m 0,0 -0.832,-0.144 -0.098,2.084 0.833,0.145 0.011,-0.247 -0.53,-0.092 0.03,-0.634 0.46,0.08 -0.105,-0.274 -0.343,-0.059 0.032,-0.695 0.53,0.092"
           style="fill:#ffffff;fill-opacity:1;fill-rule:nonzero;stroke:none"
           id="path1118" />
      </g>
      <g
         id="g1120"
         transform="matrix(3.4819094,0,0,-3.4819094,184.03625,93.513681)">
        <path
           d="m 0,0 -0.299,-0.052 -0.5,1.258 0.063,-1.334 -0.291,-0.05 -0.098,2.081 0.312,0.054 0.491,-1.227 -0.061,1.302 0.286,0.05"
           style="fill:#ffffff;fill-opacity:1;fill-rule:nonzero;stroke:none"
           id="path1122" />
      </g>
      <g
         id="g1124"
         transform="matrix(3.4819094,0,0,-3.4819094,188.31903,86.320046)">
        <path
           d="m 0,0 -0.335,-0.058 0.086,-1.838 -0.303,-0.052 -0.086,1.837 -0.334,-0.058 -0.012,0.247 0.972,0.169"
           style="fill:#ffffff;fill-opacity:1;fill-rule:nonzero;stroke:none"
           id="path1126" />
      </g>
      <g
         id="g1128"
         transform="matrix(3.4819094,0,0,-3.4819094,192.81421,91.992027)">
        <path
           d="m 0,0 -0.832,-0.144 -0.098,2.084 0.833,0.145 0.011,-0.247 -0.53,-0.092 0.03,-0.634 0.46,0.079 -0.105,-0.273 -0.343,-0.059 0.032,-0.695 0.53,0.092"
           style="fill:#ffffff;fill-opacity:1;fill-rule:nonzero;stroke:none"
           id="path1130" />
      </g>
      <g
         id="g1132"
         transform="matrix(3.4819094,0,0,-3.4819094,196.55721,87.472563)">
        <path
           d="m 0,0 -0.034,0.736 -0.44,-0.077 0.035,-0.735 z m 0.401,-1.041 -0.326,-0.057 -0.34,0.803 -0.163,-0.028 0.04,-0.855 -0.3,-0.052 -0.097,2.084 0.879,0.153 c 0.05,0.009 0.09,0 0.118,-0.026 C 0.241,0.954 0.256,0.919 0.258,0.874 L 0.298,0.025 C 0.301,-0.037 0.285,-0.092 0.252,-0.141 0.218,-0.19 0.171,-0.219 0.11,-0.23 L 0.032,-0.244"
           style="fill:#ffffff;fill-opacity:1;fill-rule:nonzero;stroke:none"
           id="path1134" />
      </g>
      <g
         id="g1136"
         transform="matrix(3.4819094,0,0,-3.4819094,202.00988,83.945328)">
        <path
           d="m 0,0 -0.335,-0.058 0.086,-1.838 -0.303,-0.052 -0.086,1.837 -0.334,-0.058 -0.012,0.247 0.972,0.169"
           style="fill:#ffffff;fill-opacity:1;fill-rule:nonzero;stroke:none"
           id="path1138" />
      </g>
      <g
         id="g1140"
         transform="matrix(3.4819094,0,0,-3.4819094,205.43614,87.514313)">
        <path
           d="M 0,0 -0.251,1.103 -0.289,1.096 -0.442,-0.077 Z m 0.432,-0.581 -0.297,-0.052 -0.088,0.386 -0.518,-0.09 -0.049,-0.41 -0.288,-0.05 0.278,2.15 0.495,0.086"
           style="fill:#ffffff;fill-opacity:1;fill-rule:nonzero;stroke:none"
           id="path1142" />
      </g>
      <g
         id="g1144"
         transform="matrix(3.4819094,0,0,-3.4819094,209.17223,89.150854)">
        <path
           d="M 0,0 -0.303,-0.052 -0.4,2.032 -0.097,2.085"
           style="fill:#ffffff;fill-opacity:1;fill-rule:nonzero;stroke:none"
           id="path1146" />
      </g>
      <g
         id="g1148"
         transform="matrix(3.4819094,0,0,-3.4819094,214.29761,88.262951)">
        <path
           d="m 0,0 -0.299,-0.052 -0.5,1.258 0.063,-1.334 -0.291,-0.05 -0.098,2.081 0.312,0.054 0.491,-1.227 -0.061,1.302 0.286,0.05"
           style="fill:#ffffff;fill-opacity:1;fill-rule:nonzero;stroke:none"
           id="path1150" />
      </g>
      <g
         id="g1152"
         transform="matrix(3.4819094,0,0,-3.4819094,220.75307,87.141721)">
        <path
           d="m 0,0 -0.279,-0.048 -0.063,1.346 -0.374,-1.416 -0.494,1.265 0.063,-1.346 -0.291,-0.05 -0.097,2.084 0.337,0.059 0.465,-1.145 0.321,1.281 0.315,0.055"
           style="fill:#ffffff;fill-opacity:1;fill-rule:nonzero;stroke:none"
           id="path1154" />
      </g>
      <g
         id="g1156"
         transform="matrix(3.4819094,0,0,-3.4819094,225.19249,86.368803)">
        <path
           d="m 0,0 -0.833,-0.145 -0.097,2.085 0.833,0.145 0.011,-0.248 -0.53,-0.092 0.03,-0.633 0.46,0.079 -0.105,-0.273 -0.343,-0.059 0.032,-0.695 0.53,0.092"
           style="fill:#ffffff;fill-opacity:1;fill-rule:nonzero;stroke:none"
           id="path1158" />
      </g>
      <g
         id="g1160"
         transform="matrix(3.4819094,0,0,-3.4819094,230.10892,85.515741)">
        <path
           d="m 0,0 -0.299,-0.052 -0.5,1.258 0.063,-1.334 -0.292,-0.05 -0.097,2.081 0.312,0.054 0.491,-1.227 -0.061,1.302 0.286,0.05"
           style="fill:#ffffff;fill-opacity:1;fill-rule:nonzero;stroke:none"
           id="path1162" />
      </g>
      <g
         id="g1164"
         transform="matrix(3.4819094,0,0,-3.4819094,234.3917,78.322105)">
        <path
           d="m 0,0 -0.335,-0.058 0.086,-1.838 -0.303,-0.052 -0.086,1.837 -0.334,-0.058 -0.012,0.247 0.972,0.169"
           style="fill:#ffffff;fill-opacity:1;fill-rule:nonzero;stroke:none"
           id="path1166" />
      </g>
      <g
         id="g1168"
         transform="matrix(3.4819094,0,0,-3.4819094,245.87503,86.957251)">
        <path
           d="M 0,0 -0.111,0.64 0.092,0.675 0.284,0.254 0.325,0.715 0.527,0.75 0.638,0.11 0.515,0.089 0.426,0.599 0.376,0.065 0.259,0.045 0.034,0.531 0.122,0.021 Z M -0.399,-0.069 -0.49,0.46 -0.688,0.425 l -0.019,0.111 0.519,0.09 0.019,-0.111 -0.192,-0.033 0.092,-0.529"
           style="fill:#313331;fill-opacity:1;fill-rule:nonzero;stroke:none"
           id="path1170" />
      </g>
    </g>
  </g>
</svg>
